<svg xmlns="http://www.w3.org/2000/svg" viewBox="0 0 256 256" focusable="false" color="var(--token-efaf75b8-cb65-4729-950c-290bf840b70f, rgb(23, 72, 139)) /* {&quot;name&quot;:&quot;Blue&quot;} */" style="user-select: none; width: 100%; height: 100%; display: inline-block; fill: var(--token-efaf75b8-cb65-4729-950c-290bf840b70f, rgb(23, 72, 139)); color: var(--token-efaf75b8-cb65-4729-950c-290bf840b70f, rgb(23, 72, 139)); flex-shrink: 0;"><g color="var(--token-efaf75b8-cb65-4729-950c-290bf840b70f, rgb(23, 72, 139)) /* {&quot;name&quot;:&quot;Blue&quot;} */" weight="thin"><path d="M216,28H40A12,12,0,0,0,28,40V216a12,12,0,0,0,12,12H216a12,12,0,0,0,12-12V40A12,12,0,0,0,216,28Zm4,188a4,4,0,0,1-4,4H40a4,4,0,0,1-4-4V40a4,4,0,0,1,4-4H216a4,4,0,0,1,4,4ZM92,112v64a4,4,0,0,1-8,0V112a4,4,0,0,1,8,0Zm88,28v36a4,4,0,0,1-8,0V140a24,24,0,0,0-48,0v36a4,4,0,0,1-8,0V112a4,4,0,0,1,8,0v6.87A32,32,0,0,1,180,140ZM96,84a8,8,0,1,1-8-8A8,8,0,0,1,96,84Z"></path></g></svg>