<svg xmlns="http://www.w3.org/2000/svg" width="299" height="64" fill="none"><path fill="#813CFF" fill-rule="evenodd" d="M29 50h-3c-4.96 0-9-4.03-9-9v-5.987c0-.83.337-1.582.881-2.128A8.952 8.952 0 0 1 17 29v-5.987c0-.83.337-1.582.881-2.128A8.952 8.952 0 0 1 17 17v-5.987A3.015 3.015 0 0 1 20.013 8H26c1.17 0 2.289.224 3.315.632C30.357 4.81 33.857 2 38 2h5.987A3.015 3.015 0 0 1 47 5.013V11a8.952 8.952 0 0 1-.881 3.885c.544.546.881 1.298.881 2.128V23a8.952 8.952 0 0 1-.881 3.885c.544.546.881 1.298.881 2.128V35c0 4.97-4.04 9-9 9h-3v15c0 1.657-1.332 3-3 3-1.657 0-3-1.338-3-3v-9zm0-9c0-1.652-1.349-3-3-3h-3v3c0 1.652 1.349 3 3 3h3v-3zm-3-15c1.651 0 3 1.348 3 3v3h-3c-1.651 0-3-1.348-3-3v-3h3zm3-9c0-1.652-1.349-3-3-3h-3v3c0 1.652 1.349 3 3 3h3v-3zm6-3v-3c0-1.652 1.349-3 3-3h3v3c0 1.652-1.349 3-3 3h-3zm0 9v3h3c1.651 0 3-1.348 3-3v-3h-3c-1.651 0-3 1.348-3 3zm0 15v-3c0-1.652 1.349-3 3-3h3v3c0 1.652-1.349 3-3 3h-3z" clip-rule="evenodd"/><path fill="#141F2F" d="M83.341 23.496v3.43c-1.305-2.37-3.627-3.784-6.746-3.784-4.787 0-8.595 3.89-8.595 8.77 0 4.88 3.808 8.804 8.595 8.804 3.12 0 5.44-1.414 6.746-3.819v3.395c0 3.005-2.466 4.985-5.658 4.985-2.828 0-5.186-1.308-5.295-3.43h-3.3C69.306 46.338 74.057 48 77.792 48c5.114 0 8.886-3.005 8.886-7.85V23.496H83.34zm-6.056 14.18c-3.373 0-6.02-2.547-6.02-5.764 0-3.183 2.647-5.729 6.02-5.729 3.481 0 6.056 2.44 6.056 5.729 0 3.323-2.575 5.763-6.056 5.763zm21.912-14.498c-2.104 0-3.808 1.096-4.86 2.829v-2.51h-3.373V40.75h3.373v-9.723c0-3.006 2.103-4.915 4.751-4.915.58 0 1.197.106 1.741.283V23.39a6.256 6.256 0 0 0-1.632-.212zm11.253-.036c-5.15 0-9.139 3.925-9.139 9.017 0 5.056 3.989 8.946 9.139 8.946 5.114 0 9.14-3.89 9.14-8.946 0-5.092-4.026-9.017-9.14-9.017zm0 3.112c3.301 0 5.876 2.546 5.876 5.905 0 3.288-2.575 5.834-5.876 5.834-3.336 0-5.875-2.546-5.875-5.834 0-3.359 2.539-5.905 5.875-5.905zm16.448 14.497h2.648l4.642-12.375 4.606 12.375h2.684l6.456-17.255h-3.591l-4.207 12.376-4.606-12.376h-2.72l-4.533 12.376-4.244-12.376h-3.554l6.419 17.255zm33.262-14.143v-3.112h-4.788V18.83h-3.336v4.667h-3.446v3.112h3.446v8.026c0 4.208 2.466 6.33 6.201 6.33.617 0 1.379-.071 1.923-.213v-3.005c-.363.106-.835.141-1.233.141-2.104 0-3.555-.919-3.555-3.324v-7.955h4.788zm12.123-3.466c-2.539 0-4.533 1.238-5.658 3.36V16h-3.372v24.751h3.372V31.24c0-3.006 1.923-4.986 4.897-4.986 2.937 0 4.823 1.98 4.823 4.986v9.511h3.337v-9.865c0-4.773-2.829-7.744-7.399-7.744zm31.808-.105c-2.249 0-4.316 1.06-5.368 2.545-1.088-1.803-2.72-2.546-5.041-2.546-1.632 0-3.735.53-5.077 2.44V23.39h-5.114v17.361h5.114v-9.617c0-2.263 1.487-3.324 3.155-3.324 1.886 0 3.083 1.273 3.083 3.324v9.617h5.113v-9.617c0-2.228 1.524-3.324 3.228-3.324 1.85 0 3.047 1.273 3.047 3.324v9.617h5.15V29.967c0-4.208-3.047-6.93-7.29-6.93zm27.787 8.45c0-4.773-3.953-8.45-8.777-8.45-5.186 0-9.248 3.889-9.248 8.945 0 5.127 4.098 9.123 9.357 9.123 4.461 0 7.834-2.44 8.414-6.188h-5.005c-.29 1.202-1.56 2.051-3.554 2.051-2.394 0-4.171-1.45-4.534-3.713h13.238a17.06 17.06 0 0 0 .109-1.768zm-13.093-1.414c.617-2.05 2.14-3.006 4.098-3.006 1.886 0 3.518 1.238 3.663 3.006h-7.761zm25.521-7.036c-2.031 0-3.699.954-4.823 2.616V23.39h-5.114v17.361h5.114v-9.193c0-2.263 1.378-3.748 3.517-3.748 2.104 0 3.518 1.485 3.518 3.748v9.193h5.114v-9.83c0-4.914-2.756-7.884-7.326-7.884zm21.346 5.091V23.39h-4.388v-4.56h-5.114v4.561h-3.3v4.738h3.3v5.552c0 4.667 2.829 7.354 7.036 7.354.725 0 1.777-.106 2.466-.283v-4.596c-.399.106-.87.141-1.306.141-1.777 0-3.082-.813-3.082-2.687v-5.48h4.388zm10.16-5.091c-5.259 0-9.248 3.889-9.248 9.051 0 5.163 3.989 9.017 9.248 9.017 5.223 0 9.248-3.854 9.248-9.017 0-5.162-4.025-9.052-9.248-9.052zm0 4.773c2.394 0 4.243 1.803 4.243 4.278 0 2.405-1.849 4.243-4.243 4.243-2.43 0-4.243-1.838-4.243-4.243 0-2.475 1.813-4.278 4.243-4.278zm21.483-4.773c-1.994 0-3.554.848-4.606 2.333v-1.98h-5.113v17.361h5.113v-8.556c0-3.218 1.995-4.668 4.461-4.668.617 0 1.233.106 1.85.248v-4.526c-.58-.107-1.161-.212-1.705-.212z"/></svg>