<svg xmlns="http://www.w3.org/2000/svg" viewBox="0 0 256 256" focusable="false" color="var(--token-1f376dc8-82e4-4193-a11d-c3581c355175, rgb(66, 66, 87)) /* {&quot;name&quot;:&quot;Navy Blue/30&quot;} */" style="user-select: none; width: 100%; height: 100%; display: inline-block; fill: var(--token-1f376dc8-82e4-4193-a11d-c3581c355175, rgb(66, 66, 87)); color: var(--token-1f376dc8-82e4-4193-a11d-c3581c355175, rgb(66, 66, 87)); flex-shrink: 0;"><g color="var(--token-1f376dc8-82e4-4193-a11d-c3581c355175, rgb(66, 66, 87)) /* {&quot;name&quot;:&quot;Navy Blue/30&quot;} */" weight="regular"><path d="M216,40H40A16,16,0,0,0,24,56V184a16,16,0,0,0,16,16H99.47l14.81,24.23a16,16,0,0,0,27.41.06L156.53,200H216a16,16,0,0,0,16-16V56A16,16,0,0,0,216,40Zm0,144H156.53a16.07,16.07,0,0,0-13.69,7.71L128,216l-14.85-24.3A16.08,16.08,0,0,0,99.47,184H40V56H216Z"></path></g></svg>